<?xml version="1.0" encoding="utf-8"?>
<svg viewBox="466.58 356.129 664.775 201.291" xmlns="http://www.w3.org/2000/svg">
  <path transform="matrix(0.9999999999999999, 0, 0, 0.9999999999999999, 690.9999999999999, 389.99999999999994)" d="m0 0c10.6 8.47 19.1 18.3 26 30 0.66 1.08 1.32 2.17 2 3.28 17.8 29.6 24.9 66.7 28.9 101 0.256 2.17 0.522 4.34 0.789 6.51 0.169 1.41 0.338 2.82 0.506 4.22 0.148 1.24 0.297 2.49 0.45 3.77 0.317 3.54 0.376 7.01 0.32 10.6-3.76-1.6-6.44-4-9.5-6.69-10-8.54-21.2-13.8-33.5-18.3-1.17-0.432-2.34-0.864-3.55-1.31-14.4-5.03-29.1-8.11-44.1-10.9-23.5-4.36-47.9-8.98-62.4-29.8-9.39-15.8-12.9-33.8-9.31-52 5.14-19.4 16.1-33.1 32.9-43.6 22-11.8 50.1-11.6 70.4 3.6zm-59 3c-0.723 0.3-1.45 0.601-2.19 0.91-9.24 4.18-15.8 10.3-20.8 19.1-0.619 1.07-1.24 2.14-1.88 3.25-1.16 2.83-1.39 4.73-1.12 7.75 3.1 0.325 3.1 0.325 5.19-1.88 2.03-1.91 2.03-1.91 1.81-4.12h2v-2c0.589-0.272 1.18-0.544 1.79-0.824 2.16-1.15 3.79-2.41 5.65-3.99 11-8.38 24.2-9.97 37.6-9.19 12.2 1.91 22.3 7.71 31 16.2 1.77 1.98 1.77 1.98 3.96 1.76 0.495 1.49 0.495 1.49 1 3 1.96 1.4 3.95 2.74 6 4 1.35-2.97 1.35-2.97-0.0742-5.71-4.08-7.88-4.08-7.88-8.93-15.3-0.874-1.21-0.874-1.21-1.77-2.44-6.97-8-20.5-13.9-31.1-14.7-10.1-0.465-18.8-0.0274-28.1 4.14zm-7.6 34.8c-5.1 7.16-5.95 15.8-4.9 24.4 1.16 5.75 3.48 10.5 7.5 14.8 0.99 0.33 1.98 0.66 3 1v2c8.92 5.14 15.9 7.07 26.1 4.94 8.19-2.31 14-7.02 18.9-13.9 3.93-7.73 4.27-15.8 2.23-24.2-2.81-7.82-7.24-13.3-14.2-17.8-14.3-6.11-28.4-2.76-38.6 8.81zm45.2 41.5c-1.75 1.76-1.75 1.76-3.55 4.64 0.308 2.15 0.308 2.15 1 4 4.41-0.176 7.22-0.753 10.4-3.75 2.06-2.26 2.53-2.99 2.94-6.12-0.124-0.701-0.247-1.4-0.375-2.12-4.91-2.08-6.9 0.119-10.4 3.36zm7.45 4.64c-0.269 4.65-0.269 4.65 1 9h2c0.217 0.541 0.433 1.08 0.656 1.64 1.81 3.18 4.26 5.57 6.84 8.11 0.499 0.507 0.998 1.01 1.51 1.54 2.52 2.84 2.52 2.84 5.99 3.71 0.33 0.99 0.66 1.98 1 3 3.01 1.51 5.68 1.18 9 1 0.66-0.66 1.32-1.32 2-2-0.096-3.53-0.923-4.91-3.25-7.61-0.908-0.852-1.82-1.7-2.75-2.58-4.93-4.67-4.93-4.67-6-6.81h-2c-0.262-0.593-0.523-1.19-0.793-1.8-1.96-3.57-4.83-5.97-8.21-8.2-3.04-0.473-4.28-0.359-7 1z" fill="#ffffff"/>
  <path transform="matrix(0.9999999999999999, 0, 0, 0.9999999999999999, 874.9999999999999, 380.99999999999994)" d="m0 0c0.1 1.19 0.2 2.38 0.304 3.6 0.481 5.7 0.963 11.4 1.45 17.1 0.133 1.57 0.133 1.57 0.269 3.18 1.25 14.7 2.53 29.4 3.85 44.2 2.46 27.5 2.46 27.5 3.44 39.2 0.0885 1.01 0.177 2.02 0.268 3.07 0.181 2.23 0.308 4.45 0.419 6.68-1.68 1.68-3.76 1.13-6.06 1.13-1.03 0.00129-2.05 0.00258-3.11 0.00391-1.62-0.0058-1.62-0.0058-3.27-0.0117-1.08 0.00387-2.15 0.00773-3.26 0.0117-1.03-0.00129-2.05-0.00258-3.11-0.00391-0.947-0.00113-1.89-0.00226-2.87-0.00342-2.32-0.129-2.32-0.129-4.32-1.13-0.448-2.49-0.756-4.89-0.992-7.4-0.0808-0.79-0.162-1.58-0.245-2.39-1.15-11.6-2-23.2-2.89-34.8-0.183-2.38-0.367-4.75-0.551-7.12-0.445-5.75-0.886-11.5-1.32-17.2h-2c-0.375 1.06-0.75 2.13-1.14 3.23-0.517 1.47-1.03 2.93-1.55 4.4-0.244 0.694-0.489 1.39-0.74 2.1-1.22 3.45-2.44 6.9-3.68 10.3-2.37 6.6-4.69 13.2-6.94 19.8-0.258 0.758-0.515 1.52-0.78 2.3-1.06 3.12-2.12 6.25-3.17 9.37-0.782 2.32-1.57 4.64-2.36 6.95-0.236 0.706-0.473 1.41-0.717 2.14-1.06 3.1-2.1 5.57-3.93 8.32-2.63 0.221-5.01 0.282-7.62 0.188-0.706-0.0135-1.41-0.0271-2.14-0.041-1.75-0.0354-3.49-0.0892-5.23-0.146-7.49-19.6-14.3-39.5-20.8-59.4-0.386-1.17-0.772-2.35-1.17-3.56-0.319-1.12-0.638-2.25-0.967-3.41-0.341-0.856-0.682-1.71-1.03-2.59-0.99-0.33-1.98-0.66-3-1-0.0374 1.11-0.0748 2.22-0.113 3.37-0.507 13.4-1.41 26.7-2.39 40.1-0.0657 0.912-0.131 1.82-0.199 2.76-0.191 2.64-0.386 5.28-0.582 7.92-0.0573 0.791-0.115 1.58-0.174 2.4-0.978 12.9-0.978 12.9-2.55 14.5-1.77 0.0995-3.54 0.131-5.31 0.133-1.08 0.00129-2.15 0.00258-3.26 0.00391-1.13-0.00387-2.26-0.00773-3.43-0.0117-1.13 0.00387-2.26 0.00773-3.43 0.0117-1.08-0.00129-2.15-0.00258-3.26-0.00391-0.994-0.00113-1.99-0.00226-3.01-0.00342-2.3-0.129-2.3-0.129-3.3-1.13 0.0315-2.99 0.135-5.94 0.293-8.92 0.0475-0.935 0.0949-1.87 0.144-2.83 0.647-11.9 1.77-23.7 2.88-35.5 0.223-2.41 0.446-4.82 0.669-7.22 0.559-6.02 1.12-12 1.69-18.1 0.313-3.32 0.624-6.65 0.934-9.97 0.457-4.89 0.918-9.78 1.39-14.7 0.17-1.79 0.339-3.57 0.506-5.36 0.23-2.44 0.465-4.88 0.703-7.32 0.0665-0.717 0.133-1.43 0.201-2.17 0.481-4.85 0.481-4.85 1.6-5.96 2-0.0876 4-0.107 6-0.0977 1.21 0.00322 2.43 0.00645 3.68 0.00977 1.28 0.00838 2.56 0.0168 3.88 0.0254 1.28 0.00451 2.57 0.00902 3.89 0.0137 3.18 0.0118 6.37 0.0283 9.55 0.0488 3.35 6.44 6.13 13 8.81 19.8 0.656 1.64 0.656 1.64 1.32 3.32 3.63 9.17 6.91 18.4 10.1 27.8 1.13 3.28 2.3 6.54 3.5 9.79 0.366 1 0.732 2.01 1.11 3.04 1.04 2.64 1.04 2.64 4.14 4.34 0.369-1.15 0.737-2.31 1.12-3.5 2.43-7.28 5.25-14.4 8.01-21.6 1.17-3.03 2.33-6.06 3.49-9.09 0.288-0.751 0.576-1.5 0.873-2.27 3.02-7.87 5.97-15.8 8.88-23.7 0.336-0.905 0.673-1.81 1.02-2.74 0.289-0.784 0.578-1.57 0.876-2.38 0.733-1.78 0.733-1.78 1.73-2.78 21.6-2.23 21.6-2.23 29 1z" fill="#ffffff"/>
  <path transform="matrix(0.9999999999999999, 0, 0, 0.9999999999999999, 518.9999999999999, 379.99999999999994)" d="m0 0h25c3.99 8.42 7.6 16.8 10.9 25.6 4.65 12.3 9.53 24.4 14.6 36.5 4.24 10.2 8.35 20.4 12.4 30.6 0.463 1.17 0.927 2.33 1.4 3.53 0.445 1.12 0.889 2.24 1.35 3.4 1.74 4.3 3.58 8.55 5.45 12.8 0.898 2.53 0.898 2.53 0.898 6.53-3.94 0.029-7.87 0.0468-11.8 0.0625-1.12 0.00838-2.24 0.0168-3.39 0.0254-1.07 0.00322-2.15 0.00645-3.25 0.00977-1.48 0.00786-1.48 0.00786-3 0.0159-2.54-0.114-2.54-0.114-5.54-1.11-1.11-2.36-2.05-4.62-2.94-7.06-1.55-4.17-3.15-8.22-5.16-12.2-0.357-0.706-0.714-1.41-1.08-2.14-0.27-0.531-0.54-1.06-0.819-1.61-6.21-0.0741-12.4-0.129-18.6-0.165-2.11-0.0151-4.23-0.0356-6.34-0.0615-3.04-0.0363-6.07-0.0534-9.11-0.0667-0.947-0.0155-1.89-0.031-2.87-0.0469-0.881-2.27e-4 -1.76-4.53e-4 -2.67-6.87e-4 -0.775-0.00666-1.55-0.0133-2.35-0.0202-2.57 0.457-3.42 1.34-5.03 3.36-1.04 2.2-1.04 2.2-1.82 4.67-0.306 0.893-0.612 1.79-0.928 2.71-0.309 0.929-0.617 1.86-0.936 2.81-0.32 0.94-0.641 1.88-0.971 2.85-0.788 2.32-1.57 4.64-2.34 6.96-5.83 0.841-11.5 1.15-17.4 1.12-0.806 0.00387-1.61 0.00773-2.44 0.0117-5.93-0.00993-5.93-0.00993-8.18-1.14 1.92-6.98 4.37-13.5 7.31-20.1 3.87-8.86 7.37-17.8 10.7-26.9 3.79-10.1 7.83-20 12.1-29.9 4.08-9.42 8.03-18.8 11.5-28.5 1.63-4.28 3.53-8.46 5.39-12.6zm12 36c-0.776 1.5-1.55 3-2.31 4.5-0.429 0.835-0.859 1.67-1.3 2.53-1.36 2.91-2.5 5.84-3.61 8.85-0.78 2.12-1.59 4.22-2.42 6.33-0.266 0.687-0.531 1.37-0.805 2.08-0.546 1.41-1.1 2.83-1.66 4.23-0.691 1.8-1.3 3.64-1.9 5.47 0.33 0.66 0.66 1.32 1 2h27c-0.948-8.53-2.8-14.7-5.88-22.5-0.447-1.19-0.895-2.38-1.36-3.61-0.437-1.13-0.874-2.26-1.32-3.42-0.397-1.03-0.794-2.05-1.2-3.11-1.07-2.68-1.07-2.68-4.24-3.36z" fill="#ffffff"/>
  <path transform="matrix(0.9999999999999999, 0, 0, 0.9999999999999999, 962.9999999999999, 429.99999999999994)" d="m0 0c8.28 6.05 15.6 14 17.6 24.2 1.24 12.6-0.395 22.7-8.62 32.8-8.49 8.96-19.5 13.3-31.7 14.3-14.1 0.331-26.8-2.57-37.5-12.2-7.36-7.97-11.4-17.9-11.1-28.8 1.22-10.9 4.21-19.1 12.7-26.1 6.07-4.82 12-8.08 19.6-10.1 0.598-0.188 1.2-0.376 1.81-0.57 12.7-2.49 26.3-0.428 37.2 6.51zm-40.4 19.4c-4.05 5.27-5.44 9.92-4.62 16.6 1.86 5.79 4.57 9.83 9.77 13.1 5.24 2.08 12.1 1.82 17.5 0.199 4.75-2.48 7.52-6.29 9.48-11.2 0.774-6.58 0.612-11.3-2.75-17.1-4.25-4.56-8.52-7.61-14.8-8.31-6.01 0.589-10.5 2.11-14.6 6.69z" fill="#ffffff"/>
  <path transform="matrix(0.9999999999999999, 0, 0, 0.9999999999999999, 1063, 427.99999999999994)" d="m0 0c5.75 3.94 8.97 9.41 11 16 0.519 4.23 0.492 8.4 0.426 12.7-0.00493 1.78-0.00493 1.78-0.00996 3.59-0.0104 2.48-0.0302 4.97-0.0591 7.45-0.0444 3.82-0.0615 7.64-0.0735 11.5-0.0134 2.42-0.0283 4.83-0.0449 7.25-0.00739 1.15-0.0148 2.3-0.0224 3.48-0.0128 1.05-0.0257 2.1-0.0389 3.19-0.00984 0.93-0.0197 1.86-0.0298 2.82-0.147 2.11-0.147 2.11-1.15 3.11-1.7 0.0993-3.4 0.131-5.09 0.133-1.03 0.00129-2.06 0.00258-3.12 0.00391-1.63-0.0058-1.63-0.0058-3.29-0.0117-1.08 0.00387-2.17 0.00773-3.29 0.0117-1.03-0.00129-2.06-0.00258-3.12-0.00391-0.952-0.00113-1.9-0.00226-2.88-0.00342-2.21-0.129-2.21-0.129-3.21-1.13-0.102-1.44-0.136-2.89-0.142-4.33-0.00703-0.922-0.0141-1.84-0.0213-2.79-0.00416-1-0.00833-2.01-0.0126-3.04-0.0232-2.11-0.0473-4.22-0.0723-6.33-0.0351-3.34-0.0644-6.68-0.0779-10-0.0155-3.22-0.0557-6.43-0.0999-9.65 0.00191-0.994 0.00382-1.99 0.00578-3.01-0.101-5.75-0.6-9.34-4.58-13.8-3.78-2.21-6.18-3.01-10.6-2.94-5.36 1.46-9.63 4.05-12.4 8.94-1.23 4.51-1.09 8.99-1.03 13.6 0.0126 1.69 0.025 3.39 0.0371 5.08 0.0248 2.65 0.0528 5.31 0.0862 7.96 0.0303 2.57 0.048 5.14 0.0642 7.71 0.0135 0.79 0.0269 1.58 0.0408 2.39 0.0191 4.2-0.297 7.46-2.2 11.2-3.46 0.0289-6.92 0.0468-10.4 0.0625-0.985 0.00838-1.97 0.0168-2.98 0.0254-1.41 0.00483-1.41 0.00483-2.85 0.00977-0.869 0.00524-1.74 0.0105-2.63 0.0159-2.15-0.114-2.15-0.114-4.15-1.11v-73h23c0.66 1.98 1.32 3.96 2 6 2.35-0.405 3.69-0.688 5.39-2.41 10.1-10 26.3-6.19 37.6-0.594z" fill="#ffffff"/>
  <path transform="matrix(0.9999999999999999, 0, 0, 0.9999999999999999, 1098, 424.99999999999994)" d="m0 0c0.985-0.00129 1.97-0.00258 2.98-0.00391 1.04 0.00387 2.07 0.00773 3.14 0.0117 1.55-0.0058 1.55-0.0058 3.14-0.0117 0.985 0.00129 1.97 0.00258 2.98 0.00391 0.91 0.00113 1.82 0.00226 2.76 0.00342 2.12 0.129 2.12 0.129 3.12 1.13 0.0996 2.23 0.128 4.47 0.129 6.71 0.00175 0.701 0.0035 1.4 0.00531 2.12 0.00442 2.33 0.00148 4.65-0.00189 6.98 6.73e-4 1.61 0.00164 3.22 0.0029 4.83 0.00148 3.38-6.77e-4 6.76-0.00534 10.1-0.0057 4.34-0.00242 8.68 0.00357 13 0.00361 3.33 0.00247 6.65-1.28e-4 9.98-6.69e-4 1.6 1.59e-4 3.2 0.00248 4.8 0.00253 2.23-0.00131 4.47-0.0069 6.7-7.96e-4 1.27-0.00159 2.55-0.00241 3.86-0.127 2.85-0.127 2.85-1.13 3.85-1.54 0.099-3.08 0.131-4.62 0.133-1.4 0.00193-1.4 0.00193-2.83 0.00391-1.48-0.0058-1.48-0.0058-2.98-0.0117-1.47 0.0058-1.47 0.0058-2.97 0.0117-0.937-0.00129-1.87-0.00258-2.84-0.00391-1.29-0.00169-1.29-0.00169-2.61-0.00342-2.14-0.129-2.14-0.129-4.14-1.13-0.0231-9.37-0.0409-18.7-0.0518-28.1-0.00523-4.35-0.0123-8.7-0.0236-13.1-0.0108-4.2-0.0168-8.39-0.0194-12.6-0.00185-1.6-0.00547-3.21-0.0109-4.81-0.00721-2.24-0.00826-4.48-0.0078-6.72-0.00222-1.28-0.00444-2.55-0.00673-3.87 0.197-4.68 1.77-3.98 6-3.99z" fill="#ffffff"/>
  <path transform="matrix(0.9999999999999999, 0, 0, 0.9999999999999999, 662.9999999999999, 426.99999999999994)" d="m0 0c5.22 4.35 8.51 8.83 9.23 15.8 0.325 7.89-2.1 14.8-7.22 20.9-6.06 4.43-11.9 6.49-19.3 5.78-5.45-0.927-8.19-2.51-11.7-6.78 2.63 0.451 4.8 0.898 7.19 2.12 4.24 1.32 8.5 0.866 12.8-0.125 0.33-0.66 0.66-1.32 1-2-1.45 0.34-1.45 0.34-2.94 0.688-5.9 0.838-11-1.39-15.9-4.5-3.56-3.67-5.15-6.21-5.08-11.5 0.244-3.25 0.558-6.48 0.957-9.72h-2c-0.66 4.95-1.32 9.9-2 15-0.66-0.33-1.32-0.66-2-1-1.87-6.33-0.267-13 2.75-18.8 3.84-5.44 8.41-9.21 14.9-10.9 7.75-0.731 12.9 0.365 19.3 5.01z" fill="#ffffff"/>
  <path transform="matrix(0.9999999999999999, 0, 0, 0.9999999999999999, 1110, 379.99999999999994)" d="m0 0c3.97 2.08 6.48 4.08 8.03 8.28 0.669 4.99 0.578 8.8-1.62 13.4-3.82 4.23-6.59 6.37-12.3 7.19-5.52-0.286-9.15-3.44-12.7-7.4-2.52-4.08-2.15-8.56-1.34-13.2 4.12-7.53 11.6-11.4 20-8.28z" fill="#ffffff"/>
</svg>