<?xml version="1.0" encoding="utf-8"?>
<svg viewBox="6.433 159.65 647.368 174.269" xmlns="http://www.w3.org/2000/svg">
  <path d="M 225.025 170.552 C 235.625 179.022 244.125 188.852 251.025 200.552 C 251.685 201.632 252.345 202.722 253.025 203.832 C 270.825 233.432 277.925 270.532 281.925 304.832 C 282.181 307.002 282.447 309.172 282.714 311.342 C 282.883 312.752 283.052 314.162 283.22 315.562 C 283.368 316.802 283.517 318.052 283.67 319.332 C 283.987 322.872 284.046 326.342 283.99 329.932 C 280.23 328.332 277.55 325.932 274.49 323.242 C 264.49 314.702 253.29 309.442 240.99 304.942 C 239.82 304.51 238.65 304.078 237.44 303.632 C 223.04 298.602 208.34 295.522 193.34 292.732 C 169.84 288.372 145.44 283.752 130.94 262.932 C 121.55 247.132 118.04 229.132 121.63 210.932 C 126.77 191.532 137.73 177.832 154.53 167.332 C 176.53 155.532 204.63 155.732 224.93 170.932 L 225.025 170.552 Z M 166.025 173.552 C 165.302 173.852 164.575 174.153 163.835 174.462 C 154.595 178.642 148.035 184.762 143.035 193.562 C 142.416 194.632 141.795 195.702 141.155 196.812 C 139.995 199.642 139.765 201.542 140.035 204.562 C 143.135 204.887 143.135 204.887 145.225 202.682 C 147.255 200.772 147.255 200.772 147.035 198.562 L 149.035 198.562 L 149.035 196.562 C 149.624 196.29 150.215 196.018 150.825 195.738 C 152.985 194.588 154.615 193.328 156.475 191.748 C 167.475 183.368 180.675 181.778 194.075 182.558 C 206.275 184.468 216.375 190.268 225.075 198.758 C 226.845 200.738 226.845 200.738 229.035 200.518 C 229.53 202.008 229.53 202.008 230.035 203.518 C 231.995 204.918 233.985 206.258 236.035 207.518 C 237.385 204.548 237.385 204.548 235.961 201.808 C 231.881 193.928 231.881 193.928 227.031 186.508 C 226.157 185.298 226.157 185.298 225.261 184.068 C 218.291 176.068 204.761 170.168 194.161 169.368 C 184.061 168.903 175.361 169.341 166.061 173.508 L 166.025 173.552 Z M 158.425 208.352 C 153.325 215.512 152.475 224.152 153.525 232.752 C 154.685 238.502 157.005 243.252 161.025 247.552 C 162.015 247.882 163.005 248.212 164.025 248.552 L 164.025 250.552 C 172.945 255.692 179.925 257.622 190.125 255.492 C 198.315 253.182 204.125 248.472 209.025 241.592 C 212.955 233.862 213.295 225.792 211.255 217.392 C 208.445 209.572 204.015 204.092 197.055 199.592 C 182.755 193.482 168.655 196.832 158.455 208.402 L 158.425 208.352 Z M 203.625 249.852 C 201.875 251.612 201.875 251.612 200.075 254.492 C 200.383 256.642 200.383 256.642 201.075 258.492 C 205.485 258.316 208.295 257.739 211.475 254.742 C 213.535 252.482 214.005 251.752 214.415 248.622 C 214.291 247.921 214.168 247.222 214.04 246.502 C 209.13 244.422 207.14 246.621 203.64 249.862 L 203.625 249.852 Z M 211.075 254.492 C 210.806 259.142 210.806 259.142 212.075 263.492 L 214.075 263.492 C 214.292 264.033 214.508 264.572 214.731 265.132 C 216.541 268.312 218.991 270.702 221.571 273.242 C 222.07 273.749 222.569 274.252 223.081 274.782 C 225.601 277.622 225.601 277.622 229.071 278.492 C 229.401 279.482 229.731 280.472 230.071 281.492 C 233.081 283.002 235.751 282.672 239.071 282.492 C 239.731 281.832 240.391 281.172 241.071 280.492 C 240.975 276.962 240.148 275.582 237.821 272.882 C 236.913 272.03 236.001 271.182 235.071 270.302 C 230.141 265.632 230.141 265.632 229.071 263.492 L 227.071 263.492 C 226.809 262.899 226.548 262.302 226.278 261.692 C 224.318 258.122 221.448 255.722 218.068 253.492 C 215.028 253.019 213.788 253.133 211.068 254.492 L 211.075 254.492 Z" fill="#000204" transform="matrix(0.9999999999999999, 0, 0, 0.9999999999999999, 0, -3.552713678800501e-15)"/>
  <path d="M 409.025 161.552 C 409.125 162.742 409.225 163.932 409.329 165.152 C 409.81 170.852 410.292 176.552 410.779 182.252 C 410.912 183.822 410.912 183.822 411.048 185.432 C 412.298 200.132 413.578 214.832 414.898 229.632 C 417.358 257.132 417.358 257.132 418.338 268.832 C 418.427 269.842 418.515 270.852 418.606 271.902 C 418.787 274.132 418.914 276.352 419.025 278.582 C 417.345 280.262 415.265 279.712 412.965 279.712 C 411.935 279.714 410.915 279.715 409.855 279.716 C 408.235 279.711 408.235 279.711 406.585 279.705 C 405.505 279.709 404.435 279.712 403.325 279.716 C 402.295 279.715 401.275 279.714 400.215 279.712 C 399.268 279.711 398.325 279.71 397.345 279.709 C 395.025 279.58 395.025 279.58 393.025 278.579 C 392.577 276.089 392.269 273.689 392.033 271.179 C 391.952 270.389 391.871 269.599 391.788 268.789 C 390.638 257.189 389.788 245.589 388.898 233.989 C 388.715 231.609 388.531 229.239 388.347 226.869 C 387.902 221.119 387.461 215.369 387.027 209.669 L 385.027 209.669 C 384.652 210.729 384.277 211.799 383.887 212.899 C 383.37 214.369 382.857 215.829 382.337 217.299 C 382.093 217.993 381.848 218.689 381.597 219.399 C 380.377 222.849 379.157 226.299 377.917 229.699 C 375.547 236.299 373.227 242.899 370.977 249.499 C 370.719 250.257 370.462 251.019 370.197 251.799 C 369.137 254.919 368.077 258.049 367.027 261.169 C 366.245 263.489 365.457 265.809 364.667 268.119 C 364.431 268.825 364.194 269.529 363.95 270.259 C 362.89 273.359 361.85 275.829 360.02 278.579 C 357.39 278.8 355.01 278.861 352.4 278.767 C 351.694 278.754 350.99 278.74 350.26 278.726 C 348.51 278.691 346.77 278.637 345.03 278.58 C 337.54 258.98 330.73 239.08 324.23 219.18 C 323.844 218.01 323.458 216.83 323.06 215.62 C 322.741 214.5 322.422 213.37 322.093 212.21 C 321.752 211.354 321.411 210.5 321.063 209.62 C 320.073 209.29 319.083 208.96 318.063 208.62 C 318.026 209.73 317.988 210.84 317.95 211.99 C 317.443 225.39 316.54 238.69 315.56 252.09 C 315.494 253.002 315.429 253.91 315.361 254.85 C 315.17 257.49 314.975 260.13 314.779 262.77 C 314.722 263.561 314.664 264.35 314.605 265.17 C 313.627 278.07 313.627 278.07 312.055 279.67 C 310.285 279.77 308.515 279.801 306.745 279.803 C 305.665 279.804 304.595 279.806 303.485 279.807 C 302.355 279.803 301.225 279.799 300.055 279.795 C 298.925 279.799 297.795 279.803 296.625 279.807 C 295.545 279.806 294.475 279.804 293.365 279.803 C 292.371 279.802 291.375 279.801 290.355 279.8 C 288.055 279.671 288.055 279.671 287.055 278.67 C 287.087 275.68 287.19 272.73 287.348 269.75 C 287.396 268.815 287.443 267.88 287.492 266.92 C 288.139 255.02 289.262 243.22 290.372 231.42 C 290.595 229.01 290.818 226.6 291.041 224.2 C 291.6 218.18 292.161 212.2 292.731 206.1 C 293.044 202.78 293.355 199.45 293.665 196.13 C 294.122 191.24 294.583 186.35 295.055 181.43 C 295.225 179.64 295.394 177.86 295.561 176.07 C 295.791 173.63 296.026 171.19 296.264 168.75 C 296.331 168.033 296.397 167.32 296.465 166.58 C 296.946 161.73 296.946 161.73 298.065 160.62 C 300.065 160.532 302.065 160.513 304.065 160.522 C 305.275 160.525 306.495 160.528 307.745 160.532 C 309.025 160.54 310.305 160.548 311.625 160.557 C 312.905 160.562 314.195 160.566 315.515 160.571 C 318.695 160.583 321.885 160.599 325.065 160.62 C 328.415 167.06 331.195 173.62 333.875 180.42 C 334.531 182.06 334.531 182.06 335.195 183.74 C 338.825 192.91 342.105 202.14 345.295 211.54 C 346.425 214.82 347.595 218.08 348.795 221.33 C 349.161 222.33 349.527 223.34 349.905 224.37 C 350.945 227.01 350.945 227.01 354.045 228.71 C 354.414 227.56 354.782 226.4 355.165 225.21 C 357.595 217.93 360.415 210.81 363.175 203.61 C 364.345 200.58 365.505 197.55 366.665 194.52 C 366.953 193.769 367.241 193.02 367.538 192.25 C 370.558 184.38 373.508 176.45 376.418 168.55 C 376.754 167.645 377.091 166.74 377.438 165.81 C 377.727 165.026 378.016 164.24 378.314 163.43 C 379.047 161.65 379.047 161.65 380.044 160.65 C 401.644 158.42 401.644 158.42 409.044 161.65 L 409.025 161.552 Z" fill="#000204" transform="matrix(0.9999999999999999, 0, 0, 0.9999999999999999, 0, -3.552713678800501e-15)"/>
  <path d="M 53.025 160.552 L 78.025 160.552 C 82.015 168.972 85.625 177.352 88.925 186.152 C 93.575 198.452 98.455 210.552 103.525 222.652 C 107.765 232.852 111.875 243.052 115.925 253.252 C 116.388 254.422 116.852 255.582 117.325 256.782 C 117.77 257.902 118.214 259.022 118.675 260.182 C 120.415 264.482 122.255 268.732 124.125 272.982 C 125.023 275.512 125.023 275.512 125.023 279.512 C 121.083 279.541 117.153 279.559 113.223 279.575 C 112.103 279.583 110.983 279.592 109.833 279.6 C 108.763 279.604 107.683 279.607 106.583 279.61 C 105.103 279.618 105.103 279.618 103.583 279.626 C 101.043 279.512 101.043 279.512 98.043 278.516 C 96.933 276.156 95.993 273.896 95.103 271.456 C 93.553 267.286 91.953 263.236 89.943 259.256 C 89.586 258.55 89.229 257.846 88.863 257.116 C 88.593 256.585 88.323 256.056 88.044 255.506 C 81.834 255.432 75.644 255.377 69.444 255.341 C 67.334 255.326 65.214 255.305 63.104 255.28 C 60.064 255.243 57.034 255.226 53.994 255.213 C 53.047 255.197 52.104 255.182 51.124 255.166 C 50.243 255.166 49.364 255.165 48.454 255.165 C 47.679 255.159 46.904 255.152 46.104 255.145 C 43.534 255.602 42.684 256.485 41.074 258.505 C 40.034 260.705 40.034 260.705 39.254 263.175 C 38.948 264.068 38.642 264.965 38.326 265.885 C 38.017 266.814 37.709 267.745 37.39 268.695 C 37.07 269.635 36.749 270.575 36.419 271.545 C 35.631 273.865 34.849 276.185 34.079 278.505 C 28.249 279.346 22.579 279.655 16.679 279.625 C 15.873 279.629 15.069 279.633 14.239 279.637 C 8.309 279.627 8.309 279.627 6.059 278.497 C 7.979 271.517 10.429 264.997 13.369 258.397 C 17.239 249.537 20.739 240.597 24.069 231.497 C 27.859 221.397 31.899 211.497 36.169 201.597 C 40.249 192.177 44.199 182.797 47.669 173.097 C 49.299 168.817 51.199 164.637 53.059 160.497 L 53.025 160.552 Z M 65.025 196.552 C 64.249 198.052 63.475 199.552 62.715 201.052 C 62.286 201.887 61.856 202.722 61.415 203.582 C 60.055 206.492 58.915 209.422 57.805 212.432 C 57.025 214.552 56.215 216.652 55.385 218.762 C 55.119 219.449 54.854 220.132 54.58 220.842 C 54.034 222.252 53.48 223.672 52.92 225.072 C 52.229 226.872 51.62 228.712 51.02 230.542 C 51.35 231.202 51.68 231.862 52.02 232.542 L 79.02 232.542 C 78.072 224.012 76.22 217.842 73.14 210.042 C 72.693 208.852 72.245 207.662 71.78 206.432 C 71.343 205.302 70.906 204.172 70.46 203.012 C 70.063 201.982 69.666 200.962 69.26 199.902 C 68.19 197.222 68.19 197.222 65.02 196.542 L 65.025 196.552 Z" fill="#000204" transform="matrix(0.9999999999999999, 0, 0, 0.9999999999999999, 0, -3.552713678800501e-15)"/>
  <path d="M 497.025 210.552 C 505.305 216.602 512.625 224.552 514.625 234.752 C 515.865 247.352 514.23 257.452 506.005 267.552 C 497.515 276.512 486.505 280.852 474.305 281.852 C 460.205 282.183 447.505 279.282 436.805 269.652 C 429.445 261.682 425.405 251.752 425.705 240.852 C 426.925 229.952 429.915 221.752 438.405 214.752 C 444.475 209.932 450.405 206.672 458.005 204.652 C 458.603 204.464 459.205 204.276 459.815 204.082 C 472.515 201.592 486.115 203.654 497.015 210.592 L 497.025 210.552 Z M 456.625 229.952 C 452.575 235.222 451.185 239.872 452.005 246.552 C 453.865 252.342 456.575 256.382 461.775 259.652 C 467.015 261.732 473.875 261.472 479.275 259.851 C 484.025 257.371 486.795 253.561 488.755 248.651 C 489.529 242.071 489.367 237.351 486.005 231.551 C 481.755 226.991 477.485 223.941 471.205 223.241 C 465.195 223.83 460.705 225.351 456.605 229.931 L 456.625 229.952 Z" fill="#000204" transform="matrix(0.9999999999999999, 0, 0, 0.9999999999999999, 0, -3.552713678800501e-15)"/>
  <path d="M 597.025 208.552 C 602.775 212.492 605.995 217.962 608.025 224.552 C 608.544 228.782 608.517 232.952 608.451 237.252 C 608.446 239.032 608.446 239.032 608.441 240.842 C 608.431 243.322 608.411 245.812 608.382 248.292 C 608.338 252.112 608.32 255.932 608.308 259.792 C 608.295 262.212 608.28 264.622 608.264 267.042 C 608.256 268.192 608.249 269.342 608.241 270.522 C 608.228 271.572 608.215 272.622 608.202 273.712 C 608.192 274.642 608.183 275.572 608.172 276.532 C 608.025 278.642 608.025 278.642 607.022 279.642 C 605.322 279.742 603.622 279.773 601.932 279.775 C 600.902 279.777 599.872 279.778 598.812 279.779 C 597.182 279.774 597.182 279.774 595.522 279.768 C 594.442 279.772 593.352 279.775 592.232 279.779 C 591.202 279.778 590.172 279.777 589.112 279.775 C 588.16 279.774 587.212 279.773 586.232 279.772 C 584.022 279.643 584.022 279.643 583.022 278.642 C 582.92 277.202 582.886 275.752 582.88 274.312 C 582.873 273.39 582.866 272.472 582.859 271.522 C 582.855 270.522 582.851 269.512 582.847 268.482 C 582.823 266.372 582.799 264.262 582.774 262.152 C 582.739 258.812 582.71 255.472 582.696 252.152 C 582.681 248.932 582.641 245.722 582.596 242.502 C 582.598 241.508 582.6 240.512 582.602 239.492 C 582.501 233.742 582.002 230.152 578.022 225.692 C 574.242 223.482 571.842 222.682 567.422 222.752 C 562.062 224.212 557.792 226.802 555.022 231.692 C 553.792 236.202 553.932 240.682 553.992 245.292 C 554.005 246.982 554.017 248.682 554.029 250.372 C 554.054 253.022 554.082 255.682 554.116 258.332 C 554.146 260.902 554.164 263.472 554.18 266.042 C 554.193 266.832 554.207 267.622 554.221 268.432 C 554.24 272.632 553.924 275.892 552.021 279.632 C 548.561 279.661 545.101 279.679 541.621 279.695 C 540.636 279.703 539.651 279.711 538.641 279.72 C 537.231 279.725 537.231 279.725 535.791 279.73 C 534.922 279.735 534.051 279.74 533.161 279.746 C 531.011 279.632 531.011 279.632 529.011 278.636 L 529.011 205.636 L 552.011 205.636 C 552.671 207.616 553.331 209.596 554.011 211.636 C 556.361 211.231 557.701 210.948 559.401 209.226 C 569.501 199.226 585.701 203.036 597.001 208.632 L 597.025 208.552 Z" fill="#000204" transform="matrix(0.9999999999999999, 0, 0, 0.9999999999999999, 0, -3.552713678800501e-15)"/>
  <path d="M 632.025 205.552 C 633.01 205.551 633.995 205.55 635.005 205.549 C 636.045 205.552 637.075 205.556 638.145 205.56 C 639.695 205.554 639.695 205.554 641.285 205.549 C 642.27 205.55 643.255 205.551 644.265 205.552 C 645.175 205.554 646.085 205.555 647.025 205.556 C 649.145 205.685 649.145 205.685 650.145 206.686 C 650.245 208.916 650.273 211.156 650.274 213.396 C 650.276 214.097 650.278 214.796 650.279 215.516 C 650.284 217.846 650.281 220.166 650.277 222.496 C 650.278 224.106 650.279 225.716 650.28 227.326 C 650.282 230.706 650.28 234.086 650.275 237.426 C 650.269 241.766 650.273 246.106 650.279 250.426 C 650.282 253.756 650.281 257.076 650.278 260.406 C 650.278 262.006 650.279 263.606 650.281 265.206 C 650.283 267.436 650.28 269.676 650.274 271.906 C 650.273 273.176 650.272 274.456 650.272 275.766 C 650.145 278.616 650.145 278.616 649.142 279.616 C 647.602 279.715 646.062 279.747 644.522 279.749 C 643.122 279.751 643.122 279.751 641.692 279.753 C 640.212 279.747 640.212 279.747 638.712 279.741 C 637.242 279.747 637.242 279.747 635.742 279.753 C 634.805 279.751 633.872 279.75 632.902 279.749 C 631.612 279.747 631.612 279.747 630.292 279.745 C 628.152 279.616 628.152 279.616 626.152 278.615 C 626.129 269.245 626.111 259.915 626.1 250.515 C 626.095 246.165 626.088 241.815 626.076 237.415 C 626.065 233.215 626.059 229.025 626.057 224.815 C 626.055 223.215 626.051 221.605 626.046 220.005 C 626.039 217.765 626.038 215.525 626.038 213.285 C 626.036 212.005 626.034 210.735 626.031 209.415 C 626.228 204.735 627.801 205.435 632.031 205.425 L 632.025 205.552 Z" fill="#000204" transform="matrix(0.9999999999999999, 0, 0, 0.9999999999999999, 0, -3.552713678800501e-15)"/>
  <path d="M 197.025 207.552 C 202.245 211.902 205.535 216.382 206.255 223.352 C 206.58 231.242 204.155 238.152 199.035 244.252 C 192.975 248.682 187.135 250.742 179.735 250.032 C 174.285 249.105 171.545 247.522 168.035 243.252 C 170.665 243.703 172.835 244.15 175.225 245.372 C 179.465 246.692 183.725 246.238 188.025 245.247 C 188.355 244.587 188.685 243.927 189.025 243.247 C 187.575 243.587 187.575 243.587 186.085 243.935 C 180.185 244.773 175.085 242.545 170.185 239.435 C 166.625 235.765 165.035 233.225 165.105 227.935 C 165.349 224.685 165.663 221.455 166.062 218.215 L 164.062 218.215 C 163.402 223.165 162.742 228.115 162.062 233.215 C 161.402 232.885 160.742 232.555 160.062 232.215 C 158.192 225.885 159.795 219.215 162.812 213.415 C 166.652 207.975 171.222 204.205 177.712 202.515 C 185.462 201.784 190.612 202.88 197.012 207.525 L 197.025 207.552 Z" fill="#000204" transform="matrix(0.9999999999999999, 0, 0, 0.9999999999999999, 0, -3.552713678800501e-15)"/>
  <path d="M 644.025 160.552 C 647.995 162.632 650.505 164.632 652.055 168.832 C 652.724 173.822 652.633 177.632 650.435 182.232 C 646.615 186.462 643.845 188.602 638.135 189.422 C 632.615 189.136 628.985 185.982 625.435 182.022 C 622.915 177.942 623.285 173.462 624.095 168.822 C 628.215 161.292 635.695 157.422 644.095 160.542 L 644.025 160.552 Z" fill="#000204" transform="matrix(0.9999999999999999, 0, 0, 0.9999999999999999, 0, -3.552713678800501e-15)"/>
</svg>